<svg version="1.1" viewBox="0.0 0.0 600.0 371.0" fill="none" stroke="none" stroke-linecap="square" stroke-miterlimit="10" width="600" height="371" xmlns:xlink="http://www.w3.org/1999/xlink" xmlns="http://www.w3.org/2000/svg"><path fill="#ffffff" d="M0 0L600.0 0L600.0 371.0L0 371.0L0 0Z" fill-rule="nonzero"/><path stroke="#cccccc" stroke-width="1.0" stroke-linecap="butt" d="M112.5 62.5L112.5 298.5" fill-rule="nonzero"/><path stroke="#cccccc" stroke-width="1.0" stroke-linecap="butt" d="M179.5 62.5L179.5 298.5" fill-rule="nonzero"/><path stroke="#cccccc" stroke-width="1.0" stroke-linecap="butt" d="M246.5 62.5L246.5 298.5" fill-rule="nonzero"/><path stroke="#cccccc" stroke-width="1.0" stroke-linecap="butt" d="M313.5 62.5L313.5 298.5" fill-rule="nonzero"/><path stroke="#cccccc" stroke-width="1.0" stroke-linecap="butt" d="M380.5 62.5L380.5 298.5" fill-rule="nonzero"/><path stroke="#cccccc" stroke-width="1.0" stroke-linecap="butt" d="M447.5 62.5L447.5 298.5" fill-rule="nonzero"/><path stroke="#cccccc" stroke-width="1.0" stroke-linecap="butt" d="M514.5 62.5L514.5 298.5" fill-rule="nonzero"/><path stroke="#cccccc" stroke-width="1.0" stroke-linecap="butt" d="M581.5 62.5L581.5 298.5" fill-rule="nonzero"/><path stroke="#333333" stroke-width="1.0" stroke-linecap="butt" d="M78.5 298.5L581.5 298.5" fill-rule="nonzero"/><path stroke="#cccccc" stroke-width="1.0" stroke-linecap="butt" d="M78.5 259.5L581.5 259.5" fill-rule="nonzero"/><path stroke="#cccccc" stroke-width="1.0" stroke-linecap="butt" d="M78.5 219.5L581.5 219.5" fill-rule="nonzero"/><path stroke="#cccccc" stroke-width="1.0" stroke-linecap="butt" d="M78.5 180.5L581.5 180.5" fill-rule="nonzero"/><path stroke="#cccccc" stroke-width="1.0" stroke-linecap="butt" d="M78.5 141.5L581.5 141.5" fill-rule="nonzero"/><path stroke="#cccccc" stroke-width="1.0" stroke-linecap="butt" d="M78.5 101.5L581.5 101.5" fill-rule="nonzero"/><path stroke="#cccccc" stroke-width="1.0" stroke-linecap="butt" d="M78.5 62.5L581.5 62.5" fill-rule="nonzero"/><clipPath id="id_0"><path d="M78.55 62.416668L581.45 62.416668L581.45 298.45L78.55 298.45L78.55 62.416668Z" clip-rule="nonzero"/></clipPath><path stroke="#4285f4" stroke-width="2.0" stroke-linecap="butt" clip-path="url(#id_0)" d="M78.55 105.29606L112.07667 101.36217L145.60333 109.22994L179.13 113.16383L212.65666 119.06467L246.18333 144.63495L279.71 113.16383L313.23666 168.23828L346.76334 164.30438L380.29 148.56883L413.81668 172.17216L447.34332 168.23828L480.87 183.97383L514.39667 172.17216L547.92334 183.97383L581.45 180.03995" fill-rule="nonzero"/><path fill="#000000" fill-opacity="0.0" clip-path="url(#id_0)" d="M81.55 105.29606C81.55 106.95291 80.206856 108.29606 78.55 108.29606C76.89314 108.29606 75.55 106.95291 75.55 105.29606C75.55 103.6392 76.89314 102.29606 78.55 102.29606C80.206856 102.29606 81.55 103.6392 81.55 105.29606Z" fill-rule="nonzero"/><path fill="#000000" fill-opacity="0.0" clip-path="url(#id_0)" d="M115.07667 101.36217C115.07667 103.01902 113.73352 104.36217 112.07667 104.36217C110.419815 104.36217 109.07667 103.01902 109.07667 101.36217C109.07667 99.705315 110.419815 98.36217 112.07667 98.36217C113.73352 98.36217 115.07667 99.705315 115.07667 101.36217Z" fill-rule="nonzero"/><path fill="#000000" fill-opacity="0.0" clip-path="url(#id_0)" d="M148.60333 109.22994C148.60333 110.886795 147.2602 112.22994 145.60333 112.22994C143.94647 112.22994 142.60333 110.886795 142.60333 109.22994C142.60333 107.57309 143.94647 106.22994 145.60333 106.22994C147.2602 106.22994 148.60333 107.57309 148.60333 109.22994Z" fill-rule="nonzero"/><path fill="#000000" fill-opacity="0.0" clip-path="url(#id_0)" d="M182.13 113.16383C182.13 114.82069 180.78685 116.16383 179.13 116.16383C177.47314 116.16383 176.13 114.82069 176.13 113.16383C176.13 111.50698 177.47314 110.16383 179.13 110.16383C180.78685 110.16383 182.13 111.50698 182.13 113.16383Z" fill-rule="nonzero"/><path fill="#000000" fill-opacity="0.0" clip-path="url(#id_0)" d="M215.65666 119.06467C215.65666 120.72152 214.31352 122.06467 212.65666 122.06467C210.99982 122.06467 209.65666 120.72152 209.65666 119.06467C209.65666 117.407814 210.99982 116.06467 212.65666 116.06467C214.31352 116.06467 215.65666 117.407814 215.65666 119.06467Z" fill-rule="nonzero"/><path fill="#000000" fill-opacity="0.0" clip-path="url(#id_0)" d="M249.18333 144.63495C249.18333 146.2918 247.8402 147.63495 246.18333 147.63495C244.52647 147.63495 243.18333 146.2918 243.18333 144.63495C243.18333 142.97809 244.52647 141.63495 246.18333 141.63495C247.8402 141.63495 249.18333 142.97809 249.18333 144.63495Z" fill-rule="nonzero"/><path fill="#000000" fill-opacity="0.0" clip-path="url(#id_0)" d="M282.71 113.16383C282.71 114.82069 281.36685 116.16383 279.71 116.16383C278.05313 116.16383 276.71 114.82069 276.71 113.16383C276.71 111.50698 278.05313 110.16383 279.71 110.16383C281.36685 110.16383 282.71 111.50698 282.71 113.16383Z" fill-rule="nonzero"/><path fill="#000000" fill-opacity="0.0" clip-path="url(#id_0)" d="M316.23666 168.23828C316.23666 169.89513 314.89352 171.23828 313.23666 171.23828C311.5798 171.23828 310.23666 169.89513 310.23666 168.23828C310.23666 166.58142 311.5798 165.23828 313.23666 165.23828C314.89352 165.23828 316.23666 166.58142 316.23666 168.23828Z" fill-rule="nonzero"/><path fill="#000000" fill-opacity="0.0" clip-path="url(#id_0)" d="M349.76334 164.30438C349.76334 165.96124 348.4202 167.30438 346.76334 167.30438C345.10648 167.30438 343.76334 165.96124 343.76334 164.30438C343.76334 162.64754 345.10648 161.30438 346.76334 161.30438C348.4202 161.30438 349.76334 162.64754 349.76334 164.30438Z" fill-rule="nonzero"/><path fill="#000000" fill-opacity="0.0" clip-path="url(#id_0)" d="M383.29 148.56883C383.29 150.2257 381.94687 151.56883 380.29 151.56883C378.63315 151.56883 377.29 150.2257 377.29 148.56883C377.29 146.91197 378.63315 145.56883 380.29 145.56883C381.94687 145.56883 383.29 146.91197 383.29 148.56883Z" fill-rule="nonzero"/><path fill="#000000" fill-opacity="0.0" clip-path="url(#id_0)" d="M416.81668 172.17216C416.81668 173.82903 415.4735 175.17216 413.81668 175.17216C412.15982 175.17216 410.81668 173.82903 410.81668 172.17216C410.81668 170.51532 412.15982 169.17216 413.81668 169.17216C415.4735 169.17216 416.81668 170.51532 416.81668 172.17216Z" fill-rule="nonzero"/><path fill="#000000" fill-opacity="0.0" clip-path="url(#id_0)" d="M450.34332 168.23828C450.34332 169.89513 449.00018 171.23828 447.34332 171.23828C445.6865 171.23828 444.34332 169.89513 444.34332 168.23828C444.34332 166.58142 445.6865 165.23828 447.34332 165.23828C449.00018 165.23828 450.34332 166.58142 450.34332 168.23828Z" fill-rule="nonzero"/><path fill="#000000" fill-opacity="0.0" clip-path="url(#id_0)" d="M483.87 183.97383C483.87 185.63069 482.52686 186.97383 480.87 186.97383C479.21313 186.97383 477.87 185.63069 477.87 183.97383C477.87 182.31699 479.21313 180.97383 480.87 180.97383C482.52686 180.97383 483.87 182.31699 483.87 183.97383Z" fill-rule="nonzero"/><path fill="#000000" fill-opacity="0.0" clip-path="url(#id_0)" d="M517.39667 172.17216C517.39667 173.82903 516.0535 175.17216 514.39667 175.17216C512.7398 175.17216 511.39667 173.82903 511.39667 172.17216C511.39667 170.51532 512.7398 169.17216 514.39667 169.17216C516.0535 169.17216 517.39667 170.51532 517.39667 172.17216Z" fill-rule="nonzero"/><path fill="#000000" fill-opacity="0.0" clip-path="url(#id_0)" d="M550.92334 183.97383C550.92334 185.63069 549.5802 186.97383 547.92334 186.97383C546.2665 186.97383 544.92334 185.63069 544.92334 183.97383C544.92334 182.31699 546.2665 180.97383 547.92334 180.97383C549.5802 180.97383 550.92334 182.31699 550.92334 183.97383Z" fill-rule="nonzero"/><path fill="#000000" fill-opacity="0.0" clip-path="url(#id_0)" d="M584.45 180.03995C584.45 181.6968 583.1069 183.03995 581.45 183.03995C579.79315 183.03995 578.45 181.6968 578.45 180.03995C578.45 178.38309 579.79315 177.03995 581.45 177.03995C583.1069 177.03995 584.45 178.38309 584.45 180.03995Z" fill-rule="nonzero"/><path fill="#424242" d="M321.89062 341.2469L326.10938 341.2469L326.39062 340.8719L327.04688 341.34064Q327.32812 341.575 326.85938 341.66876L326.85938 349.16876Q326.25 349.73126 326.25 349.21564L326.25 348.3719L321.79688 348.3719L321.79688 349.77814Q321.1875 350.34064 321.1875 349.825L321.1875 340.73126L321.89062 341.2469ZM326.25 341.52814L321.79688 341.52814L321.79688 344.48126L326.25 344.48126L326.25 341.52814ZM326.25 344.7625L321.79688 344.7625L321.79688 348.09064L326.25 348.09064L326.25 344.7625ZM335.8125 346.6844Q335.39062 345.46564 334.64062 344.85626Q334.40625 344.66876 334.73438 344.71564Q336.46875 345.46564 336.46875 346.59064Q336.46875 346.96564 336.14062 346.96564Q335.90625 346.96564 335.8125 346.6844ZM339.09375 349.1219Q339.09375 349.6844 338.76562 349.96564Q338.48438 350.2 338.10938 350.2469Q337.82812 350.29376 337.82812 350.0125Q337.82812 349.77814 337.59375 349.6844L336.89062 349.4969Q336.65625 349.40314 336.89062 349.3094L338.0625 349.3094Q338.48438 349.3094 338.48438 348.8875L338.48438 343.45L333.70312 343.45L333.70312 343.16876L338.48438 343.16876L338.48438 339.9344L339.28125 340.075Q339.65625 340.3094 339.09375 340.40314L339.09375 343.16876L339.79688 343.16876L340.5 342.46564L341.39062 343.1219Q341.67188 343.35626 341.39062 343.45L339.09375 343.45L339.09375 349.1219ZM333.09375 343.1219Q333.46875 343.35626 332.90625 343.45L332.90625 350.0594Q332.29688 350.6219 332.29688 350.10626L332.29688 343.825Q331.59375 344.95 330.65625 345.84064Q330.375 346.02814 330.51562 345.7Q332.25 343.3094 333.23438 339.79376L334.07812 340.1219Q334.5 340.3094 333.79688 340.4969Q333.32812 341.71564 332.71875 343.02814L333.09375 343.1219Z" fill-rule="nonzero"/><path fill="#424242" d="M22.721888 221.43333Q23.331263 220.44896 23.893763 220.44896Q24.128138 220.44896 24.315638 220.54271L24.315638 218.76146L22.534388 218.24583L22.721888 217.58958Q22.956263 217.02708 23.050013 217.73021L24.315638 218.48021L24.315638 216.88646L23.940638 216.60521L24.409388 215.94896Q24.643763 215.66771 24.737513 216.13646L29.284388 216.13646Q29.940638 216.13646 30.268763 216.74583Q30.362513 217.12083 30.081263 217.12083Q29.800013 217.12083 29.706263 217.40208L29.565638 217.87083Q30.128138 218.48021 29.612513 218.48021L29.143763 218.48021L29.143763 220.58958L29.659388 220.58958Q30.221888 221.19896 29.706263 221.19896L26.987513 221.19896L27.268763 220.49583L27.268763 219.88646L26.050013 219.88646L26.050013 221.66771L25.768763 221.66771L25.768763 219.88646L24.596888 219.88646L24.596888 222.08958L29.987513 222.08958Q30.550013 222.69896 30.034388 222.69896L23.987513 222.69896L24.315638 221.99583L24.315638 220.87083Q24.128138 221.01146 23.800013 221.05833Q23.331263 221.15208 22.862513 221.52708Q22.628138 221.71458 22.721888 221.43333ZM26.050013 219.27708L27.268763 219.27708L27.268763 218.62083L26.893763 218.33958L27.362513 217.68333Q27.596888 217.40208 27.690638 217.87083L29.425013 217.87083L29.425013 217.07396Q29.425013 216.74583 29.096888 216.74583L24.596888 216.74583L24.596888 219.27708L25.768763 219.27708L25.768763 218.29271L25.300013 217.82396L25.815638 217.16771Q26.003138 217.02708 26.050013 217.26146L26.050013 219.27708ZM28.862513 218.48021L27.550013 218.48021L27.550013 220.58958L28.862513 220.58958L28.862513 218.48021ZM22.721888 224.43333Q21.878138 224.99583 21.409388 225.83958Q21.268763 226.02708 21.268763 225.74583Q21.784388 223.73021 22.721888 223.73021Q23.096888 223.73021 23.096888 224.05833Q23.096888 224.24583 22.721888 224.43333ZM30.784388 215.33958Q30.878138 215.62083 31.346888 215.90208L31.346888 220.30833Q31.346888 222.93333 29.893763 224.33958L30.971888 225.41771Q31.628138 225.37083 31.206263 225.69896L30.643763 226.16771L29.800013 224.57396L25.862513 224.57396L25.862513 226.26146L25.581263 226.26146L25.581263 224.71458L25.206263 224.43333L25.675013 223.77708Q25.909388 223.49583 26.003138 223.96458L29.846888 223.96458Q30.784388 222.60521 30.784388 221.43333L30.784388 215.33958ZM22.487513 223.16771L22.206263 223.16771L22.206263 219.88646L20.753138 219.88646L20.893763 219.08958Q21.128138 218.71458 21.221888 219.27708L22.206263 219.27708L22.206263 216.83958L21.596888 216.23021L22.159388 215.48021Q22.393763 215.19896 22.487513 215.48021L22.487513 223.16771ZM25.956263 208.30833L25.956263 205.82396L25.346888 205.21458L25.909388 204.46458Q26.143763 204.18333 26.237513 204.46458L26.237513 208.30833L30.221888 208.30833L30.221888 204.98021L29.518763 204.27708L30.175013 203.38646Q30.409388 203.10521 30.503138 203.38646L30.503138 213.98021L30.221888 213.98021L30.221888 211.68333L24.596888 211.68333L24.737513 210.88646Q24.971888 210.51146 25.065638 211.07396L30.221888 211.07396L30.221888 208.91771L22.440638 208.91771L22.440638 213.79271L22.159388 213.79271L22.159388 205.44896L21.456263 204.74583L22.112513 203.85521Q22.346888 203.57396 22.440638 203.85521L22.440638 208.30833L25.956263 208.30833ZM29.190638 191.85521Q27.034388 194.43333 23.706263 195.27708L23.706263 195.37083L28.581263 195.37083L28.581263 194.19896L28.065638 193.68333L28.534388 193.02708Q28.768763 192.74583 28.862513 193.02708L28.862513 195.37083L31.300013 195.37083Q31.862513 195.98021 31.346888 195.98021L28.862513 195.98021L28.862513 198.18333L28.581263 198.18333L28.581263 195.98021L24.643763 195.98021Q27.268763 197.38646 29.143763 199.35521Q29.284388 199.68333 28.956263 199.49583Q26.096888 197.10521 23.706263 196.35521L23.706263 199.21458L23.425013 199.21458L23.425013 195.98021L20.893763 195.98021L21.034388 195.18333Q21.268763 194.80833 21.362513 195.37083L23.425013 195.37083L23.425013 192.79271L22.721888 192.08958L23.378138 191.19896Q23.612513 190.91771 23.706263 191.19896L23.706263 195.04271Q26.659388 194.05833 28.581263 191.05833Q28.862513 191.57396 29.190638 191.85521ZM26.518763 201.98021Q23.940638 200.29271 20.753138 199.58958L21.221888 198.65208Q21.550013 198.18333 21.550013 198.98021Q22.815638 199.44896 24.128138 200.05833L24.268763 199.77708Q24.503138 199.40208 24.596888 199.96458L31.300013 199.96458Q31.862513 200.57396 31.346888 200.57396L24.971888 200.57396Q25.815638 201.04271 26.659388 201.79271Q26.800013 202.07396 26.518763 201.98021ZM21.456263 181.58958Q21.925013 180.98021 21.690638 182.05833Q21.925013 183.27708 22.065638 184.35521L23.237513 184.35521L23.237513 180.98021L22.534388 180.27708L23.190638 179.38646Q23.425013 179.10521 23.518763 179.38646L23.518763 184.35521L24.690638 184.35521L24.690638 181.91771L24.315638 181.63646L24.784388 180.98021Q25.018763 180.69896 25.112513 181.16771L28.534388 181.16771Q29.096888 181.77708 28.581263 181.77708L28.253138 181.77708L28.253138 184.35521L29.425013 184.35521L29.425013 181.44896L28.815638 180.83958L29.378138 180.08958Q29.612513 179.80833 29.706263 180.08958L29.706263 184.35521L30.971888 184.35521L30.971888 180.93333L30.268763 180.23021L30.925013 179.33958Q31.159388 179.05833 31.253138 179.33958L31.253138 190.02708L30.971888 190.02708L30.971888 184.96458L29.706263 184.96458L29.706263 188.76146L29.425013 188.76146L29.425013 184.96458L28.253138 184.96458L28.253138 187.40208L28.721888 187.40208Q29.284388 188.01146 28.768763 188.01146L24.221888 188.01146L24.690638 187.30833L24.690638 184.96458L23.518763 184.96458L23.518763 189.79271L23.237513 189.79271L23.237513 184.96458L22.159388 184.96458Q22.393763 186.55833 22.534388 188.66771Q22.440638 188.99583 22.300013 188.66771Q21.784388 184.30833 20.987513 182.19896L21.456263 181.58958ZM26.471888 187.40208L27.971888 187.40208L27.971888 184.96458L26.471888 184.96458L26.471888 187.40208ZM26.190638 184.35521L26.190638 181.77708L24.971888 181.77708L24.971888 184.35521L26.190638 184.35521ZM27.971888 184.35521L27.971888 181.77708L26.471888 181.77708L26.471888 184.35521L27.971888 184.35521ZM26.190638 187.40208L26.190638 184.96458L24.971888 184.96458L24.971888 187.40208L26.190638 187.40208ZM30.925013 174.60521Q30.925013 176.38646 30.175013 177.13646Q29.659388 177.65208 29.003138 177.65208Q28.253138 177.65208 27.550013 176.90208Q26.846888 176.15208 26.237513 175.02708Q25.581263 175.58958 24.362513 175.58958Q22.206263 175.58958 21.971888 175.68333Q21.503138 175.87083 21.503138 176.33958Q21.409388 176.52708 21.315638 176.33958Q21.221888 175.54271 21.737513 174.88646Q21.925013 174.65208 22.112513 174.83958Q22.253138 174.98021 22.675013 174.98021Q23.893763 174.98021 25.112513 174.98021Q25.909388 174.98021 26.096888 174.74583Q25.534388 173.43333 25.112513 172.02708Q25.018763 171.65208 24.643763 171.88646Q24.503138 171.98021 24.362513 172.21458Q24.268763 172.40208 24.221888 172.16771Q24.268763 171.60521 24.643763 171.32396Q25.065638 170.99583 25.346888 170.99583Q25.581263 170.99583 25.581263 171.37083Q26.003138 173.43333 26.706263 174.93333Q27.315638 176.19896 28.018763 176.85521Q28.487513 177.27708 28.956263 177.27708Q29.940638 177.27708 30.268763 176.10521Q30.409388 175.58958 30.409388 174.04271Q30.409388 172.68333 30.221888 172.12083Q30.034388 171.60521 30.221888 171.37083Q30.362513 171.18333 30.550013 171.18333Q30.737513 171.18333 30.784388 171.46458Q30.925013 172.30833 30.925013 174.60521ZM22.862513 165.52708Q23.096888 165.10521 23.471888 164.73021Q23.800013 164.40208 23.893763 164.87083Q27.221888 166.04271 28.815638 167.16771Q29.237513 167.44896 29.471888 167.77708Q29.846888 168.29271 29.378138 168.48021Q29.190638 169.08958 28.675013 169.37083Q28.018763 169.74583 27.128138 169.74583Q25.253138 169.74583 24.081263 168.57396Q22.534388 167.02708 22.534388 164.82396Q22.534388 162.48021 23.846888 161.16771Q24.784388 160.23021 26.190638 160.23021Q27.456263 160.23021 28.440638 161.12083Q29.846888 162.38646 30.268763 164.91771Q30.175013 165.10521 30.081263 164.91771Q29.565638 162.80833 28.253138 161.68333Q27.362513 160.93333 26.143763 160.93333Q24.878138 160.93333 24.128138 161.58958Q22.628138 162.90208 22.862513 165.52708ZM28.768763 167.73021Q26.706263 166.37083 23.753138 165.57396Q23.190638 165.43333 22.909388 165.80833Q23.096888 167.02708 24.034388 167.96458Q25.253138 169.18333 26.893763 169.18333Q28.300013 169.18333 28.815638 168.66771Q29.050013 168.43333 29.050013 168.19896Q29.050013 168.01146 28.768763 167.73021ZM31.393763 158.98021Q29.518763 156.68333 26.612513 155.93333L26.612513 158.93333L26.331263 158.93333L26.331263 153.87083L24.831263 153.87083L24.831263 157.94896L24.550013 157.94896L24.550013 153.87083L23.096888 153.87083L23.096888 158.65208L22.815638 158.65208L22.815638 155.37083Q22.721888 155.55833 22.440638 155.60521Q21.737513 155.69896 21.175013 156.40208Q20.987513 156.63646 21.034388 156.30833Q21.503138 155.32396 21.925013 155.08958Q22.346888 154.85521 22.815638 155.04271L22.815638 152.60521L20.893763 151.85521L21.362513 150.91771Q21.643763 150.77708 21.550013 151.33958L22.815638 152.32396L22.815638 150.02708L22.206263 149.41771L22.768763 148.66771Q23.003138 148.38646 23.096888 148.66771L23.096888 153.26146L24.550013 153.26146L24.550013 151.01146L23.940638 150.40208L24.503138 149.65208Q24.737513 149.37083 24.831263 149.65208L24.831263 153.26146L26.331263 153.26146L26.331263 149.74583L25.628138 149.04271L26.284388 148.15208Q26.518763 147.87083 26.612513 148.15208L26.612513 155.23021Q29.612513 155.98021 31.581263 158.83958Q31.721888 159.21458 31.393763 158.98021ZM30.784388 152.74583L30.784388 149.69896L30.081263 148.99583L30.737513 148.10521Q30.971888 147.82396 31.065638 148.10521L31.065638 157.05833L30.784388 157.05833L30.784388 153.35521L28.393763 153.35521L28.393763 155.46458L28.112513 155.46458L28.112513 150.58958L27.503138 149.98021L28.065638 149.23021Q28.300013 148.94896 28.393763 149.23021L28.393763 152.74583L30.784388 152.74583Z" fill-rule="nonzero"/><path fill="#757575" d="M71.6125 299.3094Q71.6125 301.21564 70.95625 302.15314Q70.31563 303.075 68.925 303.075Q67.56563 303.075 66.90938 302.16876Q66.25313 301.2625 66.22188 299.45L66.22188 298.0125Q66.22188 296.1219 66.8625 295.21564Q67.51875 294.29376 68.90938 294.29376Q70.28438 294.29376 70.94063 295.1844Q71.59688 296.0594 71.6125 297.90314L71.6125 299.3094ZM70.51875 297.825Q70.51875 296.45 70.12813 295.825Q69.75313 295.1844 68.90938 295.1844Q68.08125 295.1844 67.69063 295.825Q67.31563 296.45 67.31563 297.7469L67.31563 299.48126Q67.31563 300.85626 67.70625 301.52814Q68.1125 302.1844 68.925 302.1844Q69.72188 302.1844 70.1125 301.5594Q70.50313 300.9344 70.51875 299.60626L70.51875 297.825Z" fill-rule="nonzero"/><path fill="#757575" d="M71.84688 263.6111L66.25313 263.6111L66.25313 262.82986L69.20625 259.5486Q69.8625 258.7986 70.1125 258.3455Q70.3625 257.87674 70.3625 257.37674Q70.3625 256.70486 69.95625 256.283Q69.56563 255.84549 68.87813 255.84549Q68.08125 255.84549 67.62813 256.31424Q67.175 256.76736 67.175 257.5955L66.09688 257.5955Q66.09688 256.408 66.84688 255.68924Q67.6125 254.95486 68.87813 254.95486Q70.08125 254.95486 70.76875 255.57986Q71.45625 256.20486 71.45625 257.25174Q71.45625 258.50174 69.84688 260.25174L67.56563 262.7205L71.84688 262.7205L71.84688 263.6111Z" fill-rule="nonzero"/><path fill="#757575" d="M70.83125 221.41284L72.01875 221.41284L72.01875 222.28784L70.83125 222.28784L70.83125 224.27222L69.75313 224.27222L69.75313 222.28784L65.8625 222.28784L65.8625 221.64722L69.675 215.74097L70.83125 215.74097L70.83125 221.41284ZM67.09688 221.41284L69.75313 221.41284L69.75313 217.22534L69.6125 217.45972L67.09688 221.41284Z" fill-rule="nonzero"/><path fill="#757575" d="M70.51875 176.40208L70.51875 177.30833L70.31563 177.30833Q69.05 177.33958 68.3 178.07396Q67.55 178.79271 67.425 180.10521Q68.1125 179.33958 69.26875 179.33958Q70.37813 179.33958 71.05 180.12083Q71.72188 180.90208 71.72188 182.15208Q71.72188 183.46458 71.00313 184.26146Q70.28438 185.05833 69.06563 185.05833Q67.84688 185.05833 67.08125 184.12083Q66.33125 183.16771 66.33125 181.68333L66.33125 181.27708Q66.33125 178.91771 67.33125 177.66771Q68.33125 176.41771 70.31563 176.40208L70.51875 176.40208ZM69.09688 180.24583Q68.53438 180.24583 68.06563 180.57396Q67.59688 180.90208 67.40938 181.41771L67.40938 181.80833Q67.40938 182.87083 67.87813 183.51146Q68.3625 184.15208 69.06563 184.15208Q69.8 184.15208 70.22188 183.62083Q70.64375 183.07396 70.64375 182.19896Q70.64375 181.32396 70.22188 180.79271Q69.8 180.24583 69.09688 180.24583Z" fill-rule="nonzero"/><path fill="#757575" d="M71.44063 139.28195Q71.44063 139.92258 71.09688 140.42258Q70.75313 140.92258 70.19063 141.20383Q70.84688 141.48508 71.2375 142.04758Q71.62813 142.59445 71.62813 143.29758Q71.62813 144.39133 70.87813 145.0632Q70.14375 145.71945 68.925 145.71945Q67.69063 145.71945 66.94063 145.0632Q66.20625 144.39133 66.20625 143.29758Q66.20625 142.59445 66.58125 142.04758Q66.95625 141.48508 67.62813 141.20383Q67.06563 140.92258 66.7375 140.42258Q66.40938 139.92258 66.40938 139.28195Q66.40938 138.20383 67.09688 137.57883Q67.78438 136.9382 68.925 136.9382Q70.05 136.9382 70.7375 137.57883Q71.44063 138.20383 71.44063 139.28195ZM70.55 143.26633Q70.55 142.54758 70.09688 142.11008Q69.64375 141.65695 68.90938 141.65695Q68.175 141.65695 67.72188 142.11008Q67.28438 142.54758 67.28438 143.28195Q67.28438 144.0007 67.72188 144.42258Q68.15938 144.82883 68.925 144.82883Q69.675 144.82883 70.1125 144.40695Q70.55 143.98508 70.55 143.26633ZM68.925 137.82883Q68.28438 137.82883 67.87813 138.23508Q67.4875 138.6257 67.4875 139.3132Q67.4875 139.95383 67.87813 140.36008Q68.26875 140.76633 68.90938 140.76633Q69.56563 140.76633 69.95625 140.36008Q70.34688 139.95383 70.34688 139.3132Q70.34688 138.65695 69.94063 138.2507Q69.53438 137.82883 68.925 137.82883Z" fill-rule="nonzero"/><path fill="#757575" d="M62.815624 106.255554L61.7375 106.255554L61.7375 99.036804L59.55 99.83368L59.55 98.849304L62.659374 97.67743L62.815624 97.67743L62.815624 106.255554ZM71.6125 102.61493Q71.6125 104.52118 70.95625 105.45868Q70.31563 106.380554 68.925 106.380554Q67.56563 106.380554 66.90938 105.474304Q66.25313 104.568054 66.22188 102.755554L66.22188 101.318054Q66.22188 99.42743 66.8625 98.52118Q67.51875 97.599304 68.90938 97.599304Q70.28438 97.599304 70.94063 98.48993Q71.59688 99.36493 71.6125 101.20868L71.6125 102.61493ZM70.51875 101.130554Q70.51875 99.755554 70.12813 99.130554Q69.75313 98.48993 68.90938 98.48993Q68.08125 98.48993 67.69063 99.130554Q67.31563 99.755554 67.31563 101.05243L67.31563 102.786804Q67.31563 104.161804 67.70625 104.83368Q68.1125 105.48993 68.925 105.48993Q69.72188 105.48993 70.1125 104.86493Q70.50313 104.23993 70.51875 102.911804L70.51875 101.130554Z" fill-rule="nonzero"/><path fill="#757575" d="M62.815624 66.916664L61.7375 66.916664L61.7375 59.697914L59.55 60.49479L59.55 59.510414L62.659374 58.33854L62.815624 58.33854L62.815624 66.916664ZM71.84688 66.916664L66.25313 66.916664L66.25313 66.135414L69.20625 62.854164Q69.8625 62.104164 70.1125 61.65104Q70.3625 61.18229 70.3625 60.68229Q70.3625 60.010414 69.95625 59.58854Q69.56563 59.15104 68.87813 59.15104Q68.08125 59.15104 67.62813 59.61979Q67.175 60.072914 67.175 60.90104L66.09688 60.90104Q66.09688 59.71354 66.84688 58.99479Q67.6125 58.260414 68.87813 58.260414Q70.08125 58.260414 70.76875 58.885414Q71.45625 59.510414 71.45625 60.55729Q71.45625 61.80729 69.84688 63.55729L67.56563 66.02604L71.84688 66.02604L71.84688 66.916664Z" fill-rule="nonzero"/><path fill="#757575" d="M88.87354 316.45L83.27979 316.45L83.27979 315.66876L86.23292 312.3875Q86.88917 311.6375 87.13917 311.1844Q87.38917 310.71564 87.38917 310.21564Q87.38917 309.54376 86.98292 309.1219Q86.59229 308.6844 85.90479 308.6844Q85.10792 308.6844 84.65479 309.15314Q84.20167 309.60626 84.20167 310.4344L83.12354 310.4344Q83.12354 309.2469 83.87354 308.52814Q84.63917 307.79376 85.90479 307.79376Q87.10792 307.79376 87.79542 308.41876Q88.48292 309.04376 88.48292 310.09064Q88.48292 311.34064 86.87354 313.09064L84.59229 315.5594L88.87354 315.5594L88.87354 316.45ZM95.63917 312.8094Q95.63917 314.71564 94.98292 315.65314Q94.34229 316.575 92.95167 316.575Q91.59229 316.575 90.93604 315.66876Q90.27979 314.7625 90.24854 312.95L90.24854 311.5125Q90.24854 309.6219 90.88917 308.71564Q91.54542 307.79376 92.93604 307.79376Q94.31104 307.79376 94.96729 308.6844Q95.62354 309.5594 95.63917 311.40314L95.63917 312.8094ZM94.54542 311.325Q94.54542 309.95 94.15479 309.325Q93.77979 308.6844 92.93604 308.6844Q92.10792 308.6844 91.71729 309.325Q91.34229 309.95 91.34229 311.2469L91.34229 312.98126Q91.34229 314.35626 91.73292 315.02814Q92.13917 315.6844 92.95167 315.6844Q93.74854 315.6844 94.13917 315.0594Q94.52979 314.4344 94.54542 313.10626L94.54542 311.325ZM100.84229 316.45L99.76417 316.45L99.76417 309.23126L97.57667 310.02814L97.57667 309.04376L100.68604 307.8719L100.84229 307.8719L100.84229 316.45ZM108.43604 312.7Q108.10792 313.10626 107.62354 313.35626Q107.15479 313.59064 106.59229 313.59064Q105.85792 313.59064 105.31104 313.23126Q104.76417 312.8719 104.46729 312.21564Q104.17042 311.54376 104.17042 310.7469Q104.17042 309.90314 104.48292 309.21564Q104.81104 308.52814 105.40479 308.16876Q106.01417 307.79376 106.81104 307.79376Q108.07667 307.79376 108.79542 308.7469Q109.52979 309.7 109.52979 311.325L109.52979 311.6375Q109.52979 314.1375 108.54542 315.27814Q107.56104 316.41876 105.57667 316.45L105.35792 316.45L105.35792 315.54376L105.59229 315.54376Q106.93604 315.5125 107.65479 314.84064Q108.37354 314.16876 108.43604 312.7ZM106.76417 312.7Q107.31104 312.7 107.76417 312.3719Q108.23292 312.02814 108.45167 311.54376L108.45167 311.10626Q108.45167 310.04376 107.98292 309.3719Q107.51417 308.7 106.81104 308.7Q106.09229 308.7 105.65479 309.2469Q105.23292 309.79376 105.23292 310.7Q105.23292 311.575 105.63917 312.1375Q106.06104 312.7 106.76417 312.7ZM111.60792 317.1844L110.68604 317.1844L114.24854 307.91876L115.17042 307.91876L111.60792 317.1844ZM120.85792 313.59064L122.04542 313.59064L122.04542 314.46564L120.85792 314.46564L120.85792 316.45L119.77979 316.45L119.77979 314.46564L115.88917 314.46564L115.88917 313.825L119.70167 307.91876L120.85792 307.91876L120.85792 313.59064ZM117.12354 313.59064L119.77979 313.59064L119.77979 309.40314L119.63917 309.6375L117.12354 313.59064ZM123.60792 317.1844L122.68604 317.1844L126.24854 307.91876L127.17042 307.91876L123.60792 317.1844ZM131.84229 316.45L130.76416 316.45L130.76416 309.23126L128.57666 310.02814L128.57666 309.04376L131.68604 307.8719L131.84229 307.8719L131.84229 316.45ZM139.43604 312.7Q139.10791 313.10626 138.62354 313.35626Q138.15479 313.59064 137.59229 313.59064Q136.85791 313.59064 136.31104 313.23126Q135.76416 312.8719 135.46729 312.21564Q135.17041 311.54376 135.17041 310.7469Q135.17041 309.90314 135.48291 309.21564Q135.81104 308.52814 136.40479 308.16876Q137.01416 307.79376 137.81104 307.79376Q139.07666 307.79376 139.79541 308.7469Q140.52979 309.7 140.52979 311.325L140.52979 311.6375Q140.52979 314.1375 139.54541 315.27814Q138.56104 316.41876 136.57666 316.45L136.35791 316.45L136.35791 315.54376L136.59229 315.54376Q137.93604 315.5125 138.65479 314.84064Q139.37354 314.16876 139.43604 312.7ZM137.76416 312.7Q138.31104 312.7 138.76416 312.3719Q139.23291 312.02814 139.45166 311.54376L139.45166 311.10626Q139.45166 310.04376 138.98291 309.3719Q138.51416 308.7 137.81104 308.7Q137.09229 308.7 136.65479 309.2469Q136.23291 309.79376 136.23291 310.7Q136.23291 311.575 136.63916 312.1375Q137.06104 312.7 137.76416 312.7Z" fill-rule="nonzero"/><path fill="#757575" d="M155.92688 316.45L150.33313 316.45L150.33313 315.66876L153.28625 312.3875Q153.9425 311.6375 154.1925 311.1844Q154.4425 310.71564 154.4425 310.21564Q154.4425 309.54376 154.03625 309.1219Q153.64563 308.6844 152.95813 308.6844Q152.16125 308.6844 151.70813 309.15314Q151.255 309.60626 151.255 310.4344L150.17688 310.4344Q150.17688 309.2469 150.92688 308.52814Q151.6925 307.79376 152.95813 307.79376Q154.16125 307.79376 154.84875 308.41876Q155.53625 309.04376 155.53625 310.09064Q155.53625 311.34064 153.92688 313.09064L151.64563 315.5594L155.92688 315.5594L155.92688 316.45ZM162.6925 312.8094Q162.6925 314.71564 162.03625 315.65314Q161.39563 316.575 160.005 316.575Q158.64563 316.575 157.98938 315.66876Q157.33313 314.7625 157.30188 312.95L157.30188 311.5125Q157.30188 309.6219 157.9425 308.71564Q158.59875 307.79376 159.98938 307.79376Q161.36438 307.79376 162.02063 308.6844Q162.67688 309.5594 162.6925 311.40314L162.6925 312.8094ZM161.59875 311.325Q161.59875 309.95 161.20813 309.325Q160.83313 308.6844 159.98938 308.6844Q159.16125 308.6844 158.77063 309.325Q158.39563 309.95 158.39563 311.2469L158.39563 312.98126Q158.39563 314.35626 158.78625 315.02814Q159.1925 315.6844 160.005 315.6844Q160.80188 315.6844 161.1925 315.0594Q161.58313 314.4344 161.59875 313.10626L161.59875 311.325ZM167.89563 316.45L166.8175 316.45L166.8175 309.23126L164.63 310.02814L164.63 309.04376L167.73938 307.8719L167.89563 307.8719L167.89563 316.45ZM175.48938 312.7Q175.16125 313.10626 174.67688 313.35626Q174.20813 313.59064 173.64563 313.59064Q172.91125 313.59064 172.36438 313.23126Q171.8175 312.8719 171.52063 312.21564Q171.22375 311.54376 171.22375 310.7469Q171.22375 309.90314 171.53625 309.21564Q171.86438 308.52814 172.45813 308.16876Q173.0675 307.79376 173.86438 307.79376Q175.13 307.79376 175.84875 308.7469Q176.58313 309.7 176.58313 311.325L176.58313 311.6375Q176.58313 314.1375 175.59875 315.27814Q174.61438 316.41876 172.63 316.45L172.41125 316.45L172.41125 315.54376L172.64563 315.54376Q173.98938 315.5125 174.70813 314.84064Q175.42688 314.16876 175.48938 312.7ZM173.8175 312.7Q174.36438 312.7 174.8175 312.3719Q175.28625 312.02814 175.505 311.54376L175.505 311.10626Q175.505 310.04376 175.03625 309.3719Q174.5675 308.7 173.86438 308.7Q173.14563 308.7 172.70813 309.2469Q172.28625 309.79376 172.28625 310.7Q172.28625 311.575 172.6925 312.1375Q173.11438 312.7 173.8175 312.7ZM178.66125 317.1844L177.73938 317.1844L181.30188 307.91876L182.22375 307.91876L178.66125 317.1844ZM187.91125 313.59064L189.09875 313.59064L189.09875 314.46564L187.91125 314.46564L187.91125 316.45L186.83313 316.45L186.83313 314.46564L182.9425 314.46564L182.9425 313.825L186.755 307.91876L187.91125 307.91876L187.91125 313.59064ZM184.17688 313.59064L186.83313 313.59064L186.83313 309.40314L186.6925 309.6375L184.17688 313.59064ZM190.66125 317.1844L189.73938 317.1844L193.30188 307.91876L194.22375 307.91876L190.66125 317.1844ZM200.92688 316.45L195.33313 316.45L195.33313 315.66876L198.28625 312.3875Q198.9425 311.6375 199.1925 311.1844Q199.4425 310.71564 199.4425 310.21564Q199.4425 309.54376 199.03625 309.1219Q198.64563 308.6844 197.95813 308.6844Q197.16125 308.6844 196.70813 309.15314Q196.255 309.60626 196.255 310.4344L195.17688 310.4344Q195.17688 309.2469 195.92688 308.52814Q196.6925 307.79376 197.95813 307.79376Q199.16125 307.79376 199.84875 308.41876Q200.53625 309.04376 200.53625 310.09064Q200.53625 311.34064 198.92688 313.09064L196.64563 315.5594L200.92688 315.5594L200.92688 316.45ZM205.89563 316.45L204.8175 316.45L204.8175 309.23126L202.63 310.02814L202.63 309.04376L205.73938 307.8719L205.89563 307.8719L205.89563 316.45Z" fill-rule="nonzero"/><path fill="#757575" d="M222.98021 316.45L217.38646 316.45L217.38646 315.66876L220.33958 312.3875Q220.99583 311.6375 221.24583 311.1844Q221.49583 310.71564 221.49583 310.21564Q221.49583 309.54376 221.08958 309.1219Q220.69896 308.6844 220.01146 308.6844Q219.21458 308.6844 218.76146 309.15314Q218.30833 309.60626 218.30833 310.4344L217.23021 310.4344Q217.23021 309.2469 217.98021 308.52814Q218.74583 307.79376 220.01146 307.79376Q221.21458 307.79376 221.90208 308.41876Q222.58958 309.04376 222.58958 310.09064Q222.58958 311.34064 220.98021 313.09064L218.69896 315.5594L222.98021 315.5594L222.98021 316.45ZM229.74583 312.8094Q229.74583 314.71564 229.08958 315.65314Q228.44896 316.575 227.05833 316.575Q225.69896 316.575 225.04271 315.66876Q224.38646 314.7625 224.35521 312.95L224.35521 311.5125Q224.35521 309.6219 224.99583 308.71564Q225.65208 307.79376 227.04271 307.79376Q228.41771 307.79376 229.07396 308.6844Q229.73021 309.5594 229.74583 311.40314L229.74583 312.8094ZM228.65208 311.325Q228.65208 309.95 228.26146 309.325Q227.88646 308.6844 227.04271 308.6844Q226.21458 308.6844 225.82396 309.325Q225.44896 309.95 225.44896 311.2469L225.44896 312.98126Q225.44896 314.35626 225.83958 315.02814Q226.24583 315.6844 227.05833 315.6844Q227.85521 315.6844 228.24583 315.0594Q228.63646 314.4344 228.65208 313.10626L228.65208 311.325ZM234.94896 316.45L233.87083 316.45L233.87083 309.23126L231.68333 310.02814L231.68333 309.04376L234.79271 307.8719L234.94896 307.8719L234.94896 316.45ZM242.54271 312.7Q242.21458 313.10626 241.73021 313.35626Q241.26146 313.59064 240.69896 313.59064Q239.96458 313.59064 239.41771 313.23126Q238.87083 312.8719 238.57396 312.21564Q238.27708 311.54376 238.27708 310.7469Q238.27708 309.90314 238.58958 309.21564Q238.91771 308.52814 239.51146 308.16876Q240.12083 307.79376 240.91771 307.79376Q242.18333 307.79376 242.90208 308.7469Q243.63646 309.7 243.63646 311.325L243.63646 311.6375Q243.63646 314.1375 242.65208 315.27814Q241.66771 316.41876 239.68333 316.45L239.46458 316.45L239.46458 315.54376L239.69896 315.54376Q241.04271 315.5125 241.76146 314.84064Q242.48021 314.16876 242.54271 312.7ZM240.87083 312.7Q241.41771 312.7 241.87083 312.3719Q242.33958 312.02814 242.55833 311.54376L242.55833 311.10626Q242.55833 310.04376 242.08958 309.3719Q241.62083 308.7 240.91771 308.7Q240.19896 308.7 239.76146 309.2469Q239.33958 309.79376 239.33958 310.7Q239.33958 311.575 239.74583 312.1375Q240.16771 312.7 240.87083 312.7ZM245.71458 317.1844L244.79271 317.1844L248.35521 307.91876L249.27708 307.91876L245.71458 317.1844ZM254.96458 313.59064L256.1521 313.59064L256.1521 314.46564L254.96458 314.46564L254.96458 316.45L253.88646 316.45L253.88646 314.46564L249.99583 314.46564L249.99583 313.825L253.80833 307.91876L254.96458 307.91876L254.96458 313.59064ZM251.23021 313.59064L253.88646 313.59064L253.88646 309.40314L253.74583 309.6375L251.23021 313.59064ZM257.7146 317.1844L256.79272 317.1844L260.35522 307.91876L261.2771 307.91876L257.7146 317.1844ZM267.98022 316.45L262.38647 316.45L262.38647 315.66876L265.3396 312.3875Q265.99585 311.6375 266.24585 311.1844Q266.49585 310.71564 266.49585 310.21564Q266.49585 309.54376 266.0896 309.1219Q265.69897 308.6844 265.01147 308.6844Q264.2146 308.6844 263.76147 309.15314Q263.30835 309.60626 263.30835 310.4344L262.23022 310.4344Q262.23022 309.2469 262.98022 308.52814Q263.74585 307.79376 265.01147 307.79376Q266.2146 307.79376 266.9021 308.41876Q267.5896 309.04376 267.5896 310.09064Q267.5896 311.34064 265.98022 313.09064L263.69897 315.5594L267.98022 315.5594L267.98022 316.45ZM270.9646 311.65314L271.7771 311.65314Q272.55835 311.6375 272.99585 311.2469Q273.43335 310.85626 273.43335 310.1844Q273.43335 308.6844 271.93335 308.6844Q271.23022 308.6844 270.80835 309.09064Q270.4021 309.4969 270.4021 310.15314L269.30835 310.15314Q269.30835 309.1375 270.04272 308.46564Q270.79272 307.79376 271.93335 307.79376Q273.13647 307.79376 273.82397 308.4344Q274.51147 309.075 274.51147 310.21564Q274.51147 310.77814 274.1521 311.29376Q273.79272 311.8094 273.16772 312.075Q273.87085 312.29376 274.24585 312.8094Q274.63647 313.325 274.63647 314.075Q274.63647 315.21564 273.88647 315.90314Q273.13647 316.575 271.93335 316.575Q270.74585 316.575 269.98022 315.91876Q269.23022 315.2625 269.23022 314.2L270.32397 314.2Q270.32397 314.8719 270.76147 315.27814Q271.19897 315.6844 271.94897 315.6844Q272.73022 315.6844 273.13647 315.27814Q273.55835 314.85626 273.55835 314.09064Q273.55835 313.35626 273.10522 312.96564Q272.6521 312.5594 271.7771 312.54376L270.9646 312.54376L270.9646 311.65314Z" fill-rule="nonzero"/><path fill="#757575" d="M290.03354 316.45L284.4398 316.45L284.4398 315.66876L287.3929 312.3875Q288.04916 311.6375 288.29916 311.1844Q288.54916 310.71564 288.54916 310.21564Q288.54916 309.54376 288.1429 309.1219Q287.7523 308.6844 287.0648 308.6844Q286.2679 308.6844 285.8148 309.15314Q285.36166 309.60626 285.36166 310.4344L284.28354 310.4344Q284.28354 309.2469 285.03354 308.52814Q285.79916 307.79376 287.0648 307.79376Q288.2679 307.79376 288.9554 308.41876Q289.6429 309.04376 289.6429 310.09064Q289.6429 311.34064 288.03354 313.09064L285.7523 315.5594L290.03354 315.5594L290.03354 316.45ZM296.79916 312.8094Q296.79916 314.71564 296.1429 315.65314Q295.5023 316.575 294.11166 316.575Q292.7523 316.575 292.09604 315.66876Q291.4398 314.7625 291.40854 312.95L291.40854 311.5125Q291.40854 309.6219 292.04916 308.71564Q292.7054 307.79376 294.09604 307.79376Q295.47104 307.79376 296.1273 308.6844Q296.78354 309.5594 296.79916 311.40314L296.79916 312.8094ZM295.7054 311.325Q295.7054 309.95 295.3148 309.325Q294.9398 308.6844 294.09604 308.6844Q293.2679 308.6844 292.8773 309.325Q292.5023 309.95 292.5023 311.2469L292.5023 312.98126Q292.5023 314.35626 292.8929 315.02814Q293.29916 315.6844 294.11166 315.6844Q294.90854 315.6844 295.29916 315.0594Q295.6898 314.4344 295.7054 313.10626L295.7054 311.325ZM302.0023 316.45L300.92416 316.45L300.92416 309.23126L298.73666 310.02814L298.73666 309.04376L301.84604 307.8719L302.0023 307.8719L302.0023 316.45ZM309.59604 312.7Q309.2679 313.10626 308.78354 313.35626Q308.3148 313.59064 307.7523 313.59064Q307.0179 313.59064 306.47104 313.23126Q305.92416 312.8719 305.6273 312.21564Q305.3304 311.54376 305.3304 310.7469Q305.3304 309.90314 305.6429 309.21564Q305.97104 308.52814 306.5648 308.16876Q307.17416 307.79376 307.97104 307.79376Q309.23666 307.79376 309.9554 308.7469Q310.6898 309.7 310.6898 311.325L310.6898 311.6375Q310.6898 314.1375 309.7054 315.27814Q308.72104 316.41876 306.73666 316.45L306.5179 316.45L306.5179 315.54376L306.7523 315.54376Q308.09604 315.5125 308.8148 314.84064Q309.53354 314.16876 309.59604 312.7ZM307.92416 312.7Q308.47104 312.7 308.92416 312.3719Q309.3929 312.02814 309.61166 311.54376L309.61166 311.10626Q309.61166 310.04376 309.1429 309.3719Q308.67416 308.7 307.97104 308.7Q307.2523 308.7 306.8148 309.2469Q306.3929 309.79376 306.3929 310.7Q306.3929 311.575 306.79916 312.1375Q307.22104 312.7 307.92416 312.7ZM312.7679 317.1844L311.84604 317.1844L315.40854 307.91876L316.3304 307.91876L312.7679 317.1844ZM322.0179 313.59064L323.2054 313.59064L323.2054 314.46564L322.0179 314.46564L322.0179 316.45L320.9398 316.45L320.9398 314.46564L317.04916 314.46564L317.04916 313.825L320.86166 307.91876L322.0179 307.91876L322.0179 313.59064ZM318.28354 313.59064L320.9398 313.59064L320.9398 309.40314L320.79916 309.6375L318.28354 313.59064ZM324.7679 317.1844L323.84604 317.1844L327.40854 307.91876L328.3304 307.91876L324.7679 317.1844ZM335.03354 316.45L329.4398 316.45L329.4398 315.66876L332.3929 312.3875Q333.04916 311.6375 333.29916 311.1844Q333.54916 310.71564 333.54916 310.21564Q333.54916 309.54376 333.1429 309.1219Q332.7523 308.6844 332.0648 308.6844Q331.2679 308.6844 330.8148 309.15314Q330.36166 309.60626 330.36166 310.4344L329.28354 310.4344Q329.28354 309.2469 330.03354 308.52814Q330.79916 307.79376 332.0648 307.79376Q333.2679 307.79376 333.9554 308.41876Q334.6429 309.04376 334.6429 310.09064Q334.6429 311.34064 333.03354 313.09064L330.7523 315.5594L335.03354 315.5594L335.03354 316.45ZM336.9398 312.16876L337.3773 307.91876L341.7523 307.91876L341.7523 308.91876L338.29916 308.91876L338.03354 311.2469Q338.67416 310.8719 339.47104 310.8719Q340.6273 310.8719 341.3148 311.65314Q342.0023 312.41876 342.0023 313.73126Q342.0023 315.04376 341.28354 315.8094Q340.5804 316.575 339.29916 316.575Q338.17416 316.575 337.4554 315.95Q336.73666 315.3094 336.6429 314.2L337.65854 314.2Q337.7679 314.9344 338.1898 315.3094Q338.61166 315.6844 339.29916 315.6844Q340.04916 315.6844 340.48666 315.16876Q340.92416 314.65314 340.92416 313.7469Q340.92416 312.8875 340.4554 312.3719Q339.98666 311.85626 339.2054 311.85626Q338.5023 311.85626 338.09604 312.15314L337.8148 312.3875L336.9398 312.16876Z" fill-rule="nonzero"/><path fill="#757575" d="M357.08688 316.45L351.49313 316.45L351.49313 315.66876L354.44626 312.3875Q355.1025 311.6375 355.3525 311.1844Q355.6025 310.71564 355.6025 310.21564Q355.6025 309.54376 355.19626 309.1219Q354.80563 308.6844 354.11813 308.6844Q353.32126 308.6844 352.86813 309.15314Q352.415 309.60626 352.415 310.4344L351.33688 310.4344Q351.33688 309.2469 352.08688 308.52814Q352.8525 307.79376 354.11813 307.79376Q355.32126 307.79376 356.00876 308.41876Q356.69626 309.04376 356.69626 310.09064Q356.69626 311.34064 355.08688 313.09064L352.80563 315.5594L357.08688 315.5594L357.08688 316.45ZM363.8525 312.8094Q363.8525 314.71564 363.19626 315.65314Q362.55563 316.575 361.165 316.575Q359.80563 316.575 359.14938 315.66876Q358.49313 314.7625 358.46188 312.95L358.46188 311.5125Q358.46188 309.6219 359.1025 308.71564Q359.75876 307.79376 361.14938 307.79376Q362.52438 307.79376 363.18063 308.6844Q363.83688 309.5594 363.8525 311.40314L363.8525 312.8094ZM362.75876 311.325Q362.75876 309.95 362.36813 309.325Q361.99313 308.6844 361.14938 308.6844Q360.32126 308.6844 359.93063 309.325Q359.55563 309.95 359.55563 311.2469L359.55563 312.98126Q359.55563 314.35626 359.94626 315.02814Q360.3525 315.6844 361.165 315.6844Q361.96188 315.6844 362.3525 315.0594Q362.74313 314.4344 362.75876 313.10626L362.75876 311.325ZM369.05563 316.45L367.9775 316.45L367.9775 309.23126L365.79 310.02814L365.79 309.04376L368.89938 307.8719L369.05563 307.8719L369.05563 316.45ZM376.64938 312.7Q376.32126 313.10626 375.83688 313.35626Q375.36813 313.59064 374.80563 313.59064Q374.07126 313.59064 373.52438 313.23126Q372.9775 312.8719 372.68063 312.21564Q372.38376 311.54376 372.38376 310.7469Q372.38376 309.90314 372.69626 309.21564Q373.02438 308.52814 373.61813 308.16876Q374.2275 307.79376 375.02438 307.79376Q376.29 307.79376 377.00876 308.7469Q377.74313 309.7 377.74313 311.325L377.74313 311.6375Q377.74313 314.1375 376.75876 315.27814Q375.77438 316.41876 373.79 316.45L373.57126 316.45L373.57126 315.54376L373.80563 315.54376Q375.14938 315.5125 375.86813 314.84064Q376.58688 314.16876 376.64938 312.7ZM374.9775 312.7Q375.52438 312.7 375.9775 312.3719Q376.44626 312.02814 376.665 311.54376L376.665 311.10626Q376.665 310.04376 376.19626 309.3719Q375.7275 308.7 375.02438 308.7Q374.30563 308.7 373.86813 309.2469Q373.44626 309.79376 373.44626 310.7Q373.44626 311.575 373.8525 312.1375Q374.27438 312.7 374.9775 312.7ZM379.82126 317.1844L378.89938 317.1844L382.46188 307.91876L383.38376 307.91876L379.82126 317.1844ZM389.07126 313.59064L390.25876 313.59064L390.25876 314.46564L389.07126 314.46564L389.07126 316.45L387.99313 316.45L387.99313 314.46564L384.1025 314.46564L384.1025 313.825L387.915 307.91876L389.07126 307.91876L389.07126 313.59064ZM385.33688 313.59064L387.99313 313.59064L387.99313 309.40314L387.8525 309.6375L385.33688 313.59064ZM391.82126 317.1844L390.89938 317.1844L394.46188 307.91876L395.38376 307.91876L391.82126 317.1844ZM402.08688 316.45L396.49313 316.45L396.49313 315.66876L399.44626 312.3875Q400.1025 311.6375 400.3525 311.1844Q400.6025 310.71564 400.6025 310.21564Q400.6025 309.54376 400.19626 309.1219Q399.80563 308.6844 399.11813 308.6844Q398.32126 308.6844 397.86813 309.15314Q397.415 309.60626 397.415 310.4344L396.33688 310.4344Q396.33688 309.2469 397.08688 308.52814Q397.8525 307.79376 399.11813 307.79376Q400.32126 307.79376 401.00876 308.41876Q401.69626 309.04376 401.69626 310.09064Q401.69626 311.34064 400.08688 313.09064L397.80563 315.5594L402.08688 315.5594L402.08688 316.45ZM409.00876 308.52814L405.4775 316.45L404.33688 316.45L407.8525 308.8094L403.24313 308.8094L403.24313 307.91876L409.00876 307.91876L409.00876 308.52814Z" fill-rule="nonzero"/><path fill="#757575" d="M424.1402 316.45L418.54645 316.45L418.54645 315.66876L421.49957 312.3875Q422.15582 311.6375 422.40582 311.1844Q422.65582 310.71564 422.65582 310.21564Q422.65582 309.54376 422.24957 309.1219Q421.85895 308.6844 421.17145 308.6844Q420.37457 308.6844 419.92145 309.15314Q419.46832 309.60626 419.46832 310.4344L418.3902 310.4344Q418.3902 309.2469 419.1402 308.52814Q419.90582 307.79376 421.17145 307.79376Q422.37457 307.79376 423.06207 308.41876Q423.74957 309.04376 423.74957 310.09064Q423.74957 311.34064 422.1402 313.09064L419.85895 315.5594L424.1402 315.5594L424.1402 316.45ZM430.90582 312.8094Q430.90582 314.71564 430.24957 315.65314Q429.60895 316.575 428.21832 316.575Q426.85895 316.575 426.2027 315.66876Q425.54645 314.7625 425.5152 312.95L425.5152 311.5125Q425.5152 309.6219 426.15582 308.71564Q426.81207 307.79376 428.2027 307.79376Q429.5777 307.79376 430.23395 308.6844Q430.8902 309.5594 430.90582 311.40314L430.90582 312.8094ZM429.81207 311.325Q429.81207 309.95 429.42145 309.325Q429.04645 308.6844 428.2027 308.6844Q427.37457 308.6844 426.98395 309.325Q426.60895 309.95 426.60895 311.2469L426.60895 312.98126Q426.60895 314.35626 426.99957 315.02814Q427.40582 315.6844 428.21832 315.6844Q429.0152 315.6844 429.40582 315.0594Q429.79645 314.4344 429.81207 313.10626L429.81207 311.325ZM436.10895 316.45L435.03082 316.45L435.03082 309.23126L432.84332 310.02814L432.84332 309.04376L435.9527 307.8719L436.10895 307.8719L436.10895 316.45ZM443.7027 312.7Q443.37457 313.10626 442.8902 313.35626Q442.42145 313.59064 441.85895 313.59064Q441.12457 313.59064 440.5777 313.23126Q440.03082 312.8719 439.73395 312.21564Q439.43707 311.54376 439.43707 310.7469Q439.43707 309.90314 439.74957 309.21564Q440.0777 308.52814 440.67145 308.16876Q441.28082 307.79376 442.0777 307.79376Q443.34332 307.79376 444.06207 308.7469Q444.79645 309.7 444.79645 311.325L444.79645 311.6375Q444.79645 314.1375 443.81207 315.27814Q442.8277 316.41876 440.84332 316.45L440.62457 316.45L440.62457 315.54376L440.85895 315.54376Q442.2027 315.5125 442.92145 314.84064Q443.6402 314.16876 443.7027 312.7ZM442.03082 312.7Q442.5777 312.7 443.03082 312.3719Q443.49957 312.02814 443.71832 311.54376L443.71832 311.10626Q443.71832 310.04376 443.24957 309.3719Q442.78082 308.7 442.0777 308.7Q441.35895 308.7 440.92145 309.2469Q440.49957 309.79376 440.49957 310.7Q440.49957 311.575 440.90582 312.1375Q441.3277 312.7 442.03082 312.7ZM446.87457 317.1844L445.9527 317.1844L449.5152 307.91876L450.43707 307.91876L446.87457 317.1844ZM456.12457 313.59064L457.31207 313.59064L457.31207 314.46564L456.12457 314.46564L456.12457 316.45L455.04645 316.45L455.04645 314.46564L451.15582 314.46564L451.15582 313.825L454.96832 307.91876L456.12457 307.91876L456.12457 313.59064ZM452.3902 313.59064L455.04645 313.59064L455.04645 309.40314L454.90582 309.6375L452.3902 313.59064ZM458.87457 317.1844L457.9527 317.1844L461.5152 307.91876L462.43707 307.91876L458.87457 317.1844ZM469.1402 316.45L463.54645 316.45L463.54645 315.66876L466.49957 312.3875Q467.15582 311.6375 467.40582 311.1844Q467.65582 310.71564 467.65582 310.21564Q467.65582 309.54376 467.24957 309.1219Q466.85895 308.6844 466.17145 308.6844Q465.37457 308.6844 464.92145 309.15314Q464.46832 309.60626 464.46832 310.4344L463.3902 310.4344Q463.3902 309.2469 464.1402 308.52814Q464.90582 307.79376 466.17145 307.79376Q467.37457 307.79376 468.06207 308.41876Q468.74957 309.04376 468.74957 310.09064Q468.74957 311.34064 467.1402 313.09064L464.85895 315.5594L469.1402 315.5594L469.1402 316.45ZM474.7027 312.7Q474.37457 313.10626 473.8902 313.35626Q473.42145 313.59064 472.85895 313.59064Q472.12457 313.59064 471.5777 313.23126Q471.03082 312.8719 470.73395 312.21564Q470.43707 311.54376 470.43707 310.7469Q470.43707 309.90314 470.74957 309.21564Q471.0777 308.52814 471.67145 308.16876Q472.28082 307.79376 473.0777 307.79376Q474.34332 307.79376 475.06207 308.7469Q475.79645 309.7 475.79645 311.325L475.79645 311.6375Q475.79645 314.1375 474.81207 315.27814Q473.8277 316.41876 471.84332 316.45L471.62457 316.45L471.62457 315.54376L471.85895 315.54376Q473.2027 315.5125 473.92145 314.84064Q474.6402 314.16876 474.7027 312.7ZM473.03082 312.7Q473.5777 312.7 474.03082 312.3719Q474.49957 312.02814 474.71832 311.54376L474.71832 311.10626Q474.71832 310.04376 474.24957 309.3719Q473.78082 308.7 473.0777 308.7Q472.35895 308.7 471.92145 309.2469Q471.49957 309.79376 471.49957 310.7Q471.49957 311.575 471.90582 312.1375Q472.3277 312.7 473.03082 312.7Z" fill-rule="nonzero"/><path fill="#757575" d="M494.69354 316.45L489.0998 316.45L489.0998 315.66876L492.05292 312.3875Q492.70917 311.6375 492.95917 311.1844Q493.20917 310.71564 493.20917 310.21564Q493.20917 309.54376 492.80292 309.1219Q492.4123 308.6844 491.7248 308.6844Q490.92792 308.6844 490.4748 309.15314Q490.02167 309.60626 490.02167 310.4344L488.94354 310.4344Q488.94354 309.2469 489.69354 308.52814Q490.45917 307.79376 491.7248 307.79376Q492.92792 307.79376 493.61542 308.41876Q494.30292 309.04376 494.30292 310.09064Q494.30292 311.34064 492.69354 313.09064L490.4123 315.5594L494.69354 315.5594L494.69354 316.45ZM501.45917 312.8094Q501.45917 314.71564 500.80292 315.65314Q500.1623 316.575 498.77167 316.575Q497.4123 316.575 496.75604 315.66876Q496.0998 314.7625 496.06854 312.95L496.06854 311.5125Q496.06854 309.6219 496.70917 308.71564Q497.36542 307.79376 498.75604 307.79376Q500.13104 307.79376 500.7873 308.6844Q501.44354 309.5594 501.45917 311.40314L501.45917 312.8094ZM500.36542 311.325Q500.36542 309.95 499.9748 309.325Q499.5998 308.6844 498.75604 308.6844Q497.92792 308.6844 497.5373 309.325Q497.1623 309.95 497.1623 311.2469L497.1623 312.98126Q497.1623 314.35626 497.55292 315.02814Q497.95917 315.6844 498.77167 315.6844Q499.56854 315.6844 499.95917 315.0594Q500.3498 314.4344 500.36542 313.10626L500.36542 311.325ZM506.6623 316.45L505.58417 316.45L505.58417 309.23126L503.39667 310.02814L503.39667 309.04376L506.50604 307.8719L506.6623 307.8719L506.6623 316.45ZM514.25604 312.7Q513.9279 313.10626 513.44354 313.35626Q512.9748 313.59064 512.4123 313.59064Q511.67792 313.59064 511.13104 313.23126Q510.58417 312.8719 510.2873 312.21564Q509.99042 311.54376 509.99042 310.7469Q509.99042 309.90314 510.30292 309.21564Q510.63104 308.52814 511.2248 308.16876Q511.83417 307.79376 512.63104 307.79376Q513.89667 307.79376 514.6154 308.7469Q515.3498 309.7 515.3498 311.325L515.3498 311.6375Q515.3498 314.1375 514.3654 315.27814Q513.38104 316.41876 511.39667 316.45L511.17792 316.45L511.17792 315.54376L511.4123 315.54376Q512.75604 315.5125 513.4748 314.84064Q514.19354 314.16876 514.25604 312.7ZM512.58417 312.7Q513.13104 312.7 513.58417 312.3719Q514.0529 312.02814 514.27167 311.54376L514.27167 311.10626Q514.27167 310.04376 513.8029 309.3719Q513.33417 308.7 512.63104 308.7Q511.9123 308.7 511.4748 309.2469Q511.05292 309.79376 511.05292 310.7Q511.05292 311.575 511.45917 312.1375Q511.88104 312.7 512.58417 312.7ZM517.4279 317.1844L516.50604 317.1844L520.06854 307.91876L520.9904 307.91876L517.4279 317.1844ZM522.5998 312.16876L523.0373 307.91876L527.4123 307.91876L527.4123 308.91876L523.95917 308.91876L523.69354 311.2469Q524.33417 310.8719 525.13104 310.8719Q526.2873 310.8719 526.9748 311.65314Q527.6623 312.41876 527.6623 313.73126Q527.6623 315.04376 526.94354 315.8094Q526.2404 316.575 524.95917 316.575Q523.83417 316.575 523.1154 315.95Q522.39667 315.3094 522.3029 314.2L523.31854 314.2Q523.4279 314.9344 523.8498 315.3094Q524.27167 315.6844 524.95917 315.6844Q525.70917 315.6844 526.14667 315.16876Q526.58417 314.65314 526.58417 313.7469Q526.58417 312.8875 526.1154 312.3719Q525.64667 311.85626 524.8654 311.85626Q524.1623 311.85626 523.75604 312.15314L523.4748 312.3875L522.5998 312.16876ZM529.4279 317.1844L528.50604 317.1844L532.06854 307.91876L532.9904 307.91876L529.4279 317.1844ZM537.6623 316.45L536.58417 316.45L536.58417 309.23126L534.39667 310.02814L534.39667 309.04376L537.50604 307.8719L537.6623 307.8719L537.6623 316.45Z" fill-rule="nonzero"/><path fill="#757575" d="M27.3 24.503124Q28.940624 25.51875 28.940624 26.45625Q28.940624 26.846874 28.784374 27.159374L31.753124 27.159374L32.6125 24.190624L33.70625 24.503124Q34.64375 24.89375 33.471874 25.05L32.221874 27.159374L34.878124 27.159374L35.346874 26.534374L36.440624 27.315624Q36.909374 27.70625 36.128124 27.8625L36.128124 35.440624Q36.128124 36.534374 35.1125 37.08125Q34.4875 37.2375 34.4875 36.76875Q34.4875 36.3 34.01875 36.14375L33.2375 35.909374Q32.221874 36.846874 32.221874 35.9875L32.221874 35.20625L28.70625 35.20625L28.70625 36.065624Q27.690624 37.003124 27.690624 36.14375L27.690624 31.6125L28.8625 32.08125L29.878124 32.08125L29.878124 30.05L26.909374 30.05L26.909374 29.58125L29.878124 29.58125L29.878124 27.628124L26.20625 27.628124L26.20625 36.6125Q25.190624 37.55 25.190624 36.690624L25.190624 26.6125L26.3625 27.159374L28.2375 27.159374Q28.003124 26.846874 27.925 26.3Q27.76875 25.51875 27.14375 24.7375Q26.83125 24.346874 27.3 24.503124ZM30.89375 30.05L30.89375 32.08125L31.9875 32.08125L32.45625 31.45625L33.55 32.2375Q34.01875 32.628124 33.2375 32.784374L33.2375 35.675L34.565624 35.675Q35.1125 35.675 35.1125 35.128124L35.1125 27.628124L30.89375 27.628124L30.89375 29.58125L32.534374 29.58125L33.315624 28.8L34.409374 29.659374Q34.64375 29.971874 34.253124 30.05L30.89375 30.05ZM32.221874 34.7375L32.221874 32.55L28.70625 32.55L28.70625 34.7375L32.221874 34.7375ZM22.3 24.503124Q21.3625 23.096874 19.95625 22.315624Q19.64375 22.08125 20.1125 22.08125Q23.471874 22.940624 23.471874 24.503124Q23.471874 25.128124 22.925 25.128124Q22.6125 25.128124 22.3 24.503124ZM37.45625 37.940624Q36.9875 38.096874 36.51875 38.878124L29.175 38.878124Q24.8 38.878124 22.45625 36.45625L20.659374 38.253124Q20.7375 39.346874 20.190624 38.64375L19.409374 37.70625L22.065624 36.3L22.065624 29.7375L19.253124 29.7375L19.253124 29.26875L21.83125 29.26875L22.3 28.64375L23.39375 29.425Q23.8625 29.815624 23.08125 29.971874L23.08125 36.378124Q25.346874 37.940624 27.3 37.940624L37.45625 37.940624ZM24.409374 24.1125L24.409374 23.64375L29.878124 23.64375L29.878124 21.221874L31.20625 21.45625Q31.83125 21.846874 30.89375 22.003124L30.89375 23.64375L34.95625 23.64375L35.971874 22.628124L37.221874 23.565624Q37.690624 23.95625 37.221874 24.1125L24.409374 24.1125ZM49.175 29.89375L53.315624 29.89375L54.33125 28.878124L55.58125 29.815624Q56.05 30.20625 55.58125 30.3625L49.175 30.3625L49.175 37.003124L54.721874 37.003124L55.89375 35.83125L57.378124 36.925Q57.846874 37.315624 57.378124 37.471874L39.721874 37.471874L39.721874 37.003124L43.55 37.003124L43.55 27.628124L44.878124 27.8625Q45.503124 28.253124 44.565624 28.409374L44.565624 37.003124L48.159374 37.003124L48.159374 24.034374L40.034374 24.034374L40.034374 23.565624L53.940624 23.565624L55.1125 22.39375L56.596874 23.4875Q57.065624 23.878124 56.596874 24.034374L49.175 24.034374L49.175 29.89375ZM76.59688 35.284374Q72.3 31.690624 70.89375 26.14375L70.7375 26.14375L70.7375 34.26875L72.69063 34.26875L73.55 33.409374L74.64375 34.190624Q75.1125 34.58125 74.64375 34.7375L70.7375 34.7375L70.7375 38.8Q69.72188 39.7375 69.72188 38.878124L69.72188 34.7375L66.05 34.7375L66.05 34.26875L69.72188 34.26875L69.72188 27.70625Q67.37813 32.08125 64.09688 35.20625Q63.55 35.440624 63.8625 34.89375Q67.84688 30.128124 69.09688 26.14375L64.33125 26.14375L64.33125 25.675L69.72188 25.675L69.72188 21.45625L71.05 21.690624Q71.675 22.08125 70.7375 22.2375L70.7375 25.675L75.03438 25.675L76.20625 24.503124L77.69063 25.596874Q78.15938 25.9875 77.69063 26.14375L71.28438 26.14375Q72.925 31.065624 77.925 34.26875Q77.06563 34.7375 76.59688 35.284374ZM59.721874 30.83125Q62.534374 26.534374 63.70625 21.221874L65.26875 22.003124Q66.05 22.55 64.72188 22.55Q63.940624 24.659374 62.925 26.846874L63.39375 27.08125Q64.01875 27.471874 63.08125 27.628124L63.08125 38.8Q62.065624 39.7375 62.065624 38.878124L62.065624 28.253124Q61.284374 29.659374 60.034374 31.065624Q59.565624 31.3 59.721874 30.83125ZM93.70625 22.39375Q94.72188 23.175 92.925 22.784374Q90.89375 23.175 89.09688 23.409374L89.09688 25.3625L94.72188 25.3625L95.89375 24.190624L97.37813 25.284374Q97.84688 25.675 97.37813 25.83125L89.09688 25.83125L89.09688 27.784374L93.15938 27.784374L93.62813 27.159374L94.72188 27.940624Q95.19063 28.33125 94.40938 28.4875L94.40938 34.190624Q93.39375 35.128124 93.39375 34.26875L93.39375 33.721874L89.09688 33.721874L89.09688 35.675L93.94063 35.675L94.95625 34.659374L96.20625 35.596874Q96.675 35.9875 96.20625 36.14375L89.09688 36.14375L89.09688 38.253124L94.8 38.253124L95.97188 37.08125L97.45625 38.175Q97.925 38.565624 97.45625 38.721874L79.64375 38.721874L79.64375 38.253124L88.08125 38.253124L88.08125 36.14375L81.75313 36.14375L81.75313 35.675L88.08125 35.675L88.08125 33.721874L84.01875 33.721874L84.01875 34.503124Q83.00313 35.440624 83.00313 34.58125L83.00313 27.003124L84.175 27.784374L88.08125 27.784374L88.08125 25.83125L80.03438 25.83125L80.03438 25.3625L88.08125 25.3625L88.08125 23.565624Q85.425 23.95625 81.90938 24.190624Q81.3625 24.034374 81.90938 23.8Q89.175 22.940624 92.69063 21.6125L93.70625 22.39375ZM84.01875 30.753124L84.01875 33.253124L88.08125 33.253124L88.08125 30.753124L84.01875 30.753124ZM89.09688 30.284374L93.39375 30.284374L93.39375 28.253124L89.09688 28.253124L89.09688 30.284374ZM89.09688 33.253124L93.39375 33.253124L93.39375 30.753124L89.09688 30.753124L89.09688 33.253124ZM84.01875 30.284374L88.08125 30.284374L88.08125 28.253124L84.01875 28.253124L84.01875 30.284374ZM105.34688 38.175Q102.37813 38.175 101.12813 36.925Q100.26875 36.065624 100.26875 34.971874Q100.26875 33.721874 101.51875 32.55Q102.76875 31.378124 104.64375 30.3625Q103.70625 29.26875 103.70625 27.2375Q103.70625 23.64375 103.55 23.253124Q103.2375 22.471874 102.45625 22.471874Q102.14375 22.315624 102.45625 22.159374Q103.78438 22.003124 104.87813 22.8625Q105.26875 23.175 104.95625 23.4875Q104.72188 23.721874 104.72188 24.425Q104.72188 26.45625 104.72188 28.4875Q104.72188 29.815624 105.1125 30.128124Q107.3 29.190624 109.64375 28.4875Q110.26875 28.33125 109.87813 27.70625Q109.72188 27.471874 109.33125 27.2375Q109.01875 27.08125 109.40938 27.003124Q110.34688 27.08125 110.81563 27.70625Q111.3625 28.409374 111.3625 28.878124Q111.3625 29.26875 110.7375 29.26875Q107.3 29.971874 104.8 31.14375Q102.69063 32.159374 101.59688 33.33125Q100.89375 34.1125 100.89375 34.89375Q100.89375 36.534374 102.84688 37.08125Q103.70625 37.315624 106.28438 37.315624Q108.55 37.315624 109.4875 37.003124Q110.34688 36.690624 110.7375 37.003124Q111.05 37.2375 111.05 37.55Q111.05 37.8625 110.58125 37.940624Q109.175 38.175 105.34688 38.175ZM121.14375 24.7375Q121.84688 25.128124 122.47188 25.753124Q123.01875 26.3 122.2375 26.45625Q120.28438 32.003124 118.40938 34.659374Q117.94063 35.3625 117.39375 35.753124Q116.53438 36.378124 116.22188 35.596874Q115.20625 35.284374 114.7375 34.425Q114.1125 33.33125 114.1125 31.846874Q114.1125 28.721874 116.06563 26.76875Q118.64375 24.190624 122.31563 24.190624Q126.22188 24.190624 128.40938 26.378124Q129.97188 27.940624 129.97188 30.284374Q129.97188 32.39375 128.4875 34.034374Q126.37813 36.378124 122.15938 37.08125Q121.84688 36.925 122.15938 36.76875Q125.675 35.909374 127.55 33.721874Q128.8 32.2375 128.8 30.20625Q128.8 28.096874 127.70625 26.846874Q125.51875 24.346874 121.14375 24.7375ZM117.47188 34.58125Q119.7375 31.14375 121.06563 26.221874Q121.3 25.284374 120.675 24.815624Q118.64375 25.128124 117.08125 26.690624Q115.05 28.721874 115.05 31.45625Q115.05 33.8 115.90938 34.659374Q116.3 35.05 116.69063 35.05Q117.00313 35.05 117.47188 34.58125ZM132.72188 38.95625Q136.55 35.83125 137.8 30.9875L132.8 30.9875L132.8 30.51875L141.2375 30.51875L141.2375 28.01875L134.44063 28.01875L134.44063 27.55L141.2375 27.55L141.2375 25.128124L133.26875 25.128124L133.26875 24.659374L138.7375 24.659374Q138.425 24.503124 138.34688 24.034374Q138.19063 22.8625 137.01875 21.925Q136.62813 21.6125 137.175 21.690624Q138.81563 22.471874 139.20625 23.175Q139.59688 23.878124 139.28438 24.659374L143.34688 24.659374L144.59688 21.45625L146.15938 22.2375Q146.39375 22.70625 145.45625 22.55L143.81563 24.659374L147.64375 24.659374L148.65938 23.64375L149.90938 24.58125Q150.37813 24.971874 149.90938 25.128124L142.25313 25.128124L142.25313 27.55L146.00313 27.55L147.01875 26.534374L148.26875 27.471874Q148.7375 27.8625 148.26875 28.01875L142.25313 28.01875L142.25313 30.51875L148.1125 30.51875L149.28438 29.346874L150.76875 30.440624Q151.2375 30.83125 150.76875 30.9875L138.97188 30.9875Q137.72188 35.9875 132.95625 39.26875Q132.33125 39.503124 132.72188 38.95625ZM143.1125 37.940624L148.19063 37.940624L149.3625 36.76875L150.84688 37.8625Q151.31563 38.253124 150.84688 38.409374L135.925 38.409374L135.925 37.940624L142.09688 37.940624L142.09688 33.95625L138.58125 33.95625L138.58125 33.4875L146.70625 33.4875L147.72188 32.471874L148.97188 33.409374Q149.44063 33.8 148.97188 33.95625L143.1125 33.95625L143.1125 37.940624ZM158.34688 38.175Q155.37813 38.175 154.12813 36.925Q153.26875 36.065624 153.26875 34.971874Q153.26875 33.721874 154.51875 32.55Q155.76875 31.378124 157.64375 30.3625Q156.70625 29.26875 156.70625 27.2375Q156.70625 23.64375 156.55 23.253124Q156.2375 22.471874 155.45625 22.471874Q155.14375 22.315624 155.45625 22.159374Q156.78438 22.003124 157.87813 22.8625Q158.26875 23.175 157.95625 23.4875Q157.72188 23.721874 157.72188 24.425Q157.72188 26.45625 157.72188 28.4875Q157.72188 29.815624 158.1125 30.128124Q160.3 29.190624 162.64375 28.4875Q163.26875 28.33125 162.87813 27.70625Q162.72188 27.471874 162.33125 27.2375Q162.01875 27.08125 162.40938 27.003124Q163.34688 27.08125 163.81563 27.70625Q164.3625 28.409374 164.3625 28.878124Q164.3625 29.26875 163.7375 29.26875Q160.3 29.971874 157.8 31.14375Q155.69063 32.159374 154.59688 33.33125Q153.89375 34.1125 153.89375 34.89375Q153.89375 36.534374 155.84688 37.08125Q156.70625 37.315624 159.28438 37.315624Q161.55 37.315624 162.4875 37.003124Q163.34688 36.690624 163.7375 37.003124Q164.05 37.2375 164.05 37.55Q164.05 37.8625 163.58125 37.940624Q162.175 38.175 158.34688 38.175ZM172.03438 23.878124L179.06563 23.878124L179.53438 23.253124L180.62813 24.034374Q181.09688 24.425 180.31563 24.58125L180.31563 37.08125Q179.3 38.01875 179.3 37.159374L179.3 35.753124L171.87813 35.753124L171.87813 38.096874Q170.8625 39.034374 170.8625 38.175L170.8625 23.01875L172.03438 23.878124ZM179.3 24.346874L171.87813 24.346874L171.87813 29.26875L179.3 29.26875L179.3 24.346874ZM179.3 29.7375L171.87813 29.7375L171.87813 35.284374L179.3 35.284374L179.3 29.7375ZM195.2375 32.940624Q194.53438 30.909374 193.28438 29.89375Q192.89375 29.58125 193.44063 29.659374Q196.33125 30.909374 196.33125 32.784374Q196.33125 33.409374 195.78438 33.409374Q195.39375 33.409374 195.2375 32.940624ZM200.70625 37.003124Q200.70625 37.940624 200.15938 38.409374Q199.69063 38.8 199.06563 38.878124Q198.59688 38.95625 198.59688 38.4875Q198.59688 38.096874 198.20625 37.940624L197.03438 37.628124Q196.64375 37.471874 197.03438 37.315624L198.9875 37.315624Q199.69063 37.315624 199.69063 36.6125L199.69063 27.55L191.72188 27.55L191.72188 27.08125L199.69063 27.08125L199.69063 21.690624L201.01875 21.925Q201.64375 22.315624 200.70625 22.471874L200.70625 27.08125L201.87813 27.08125L203.05 25.909374L204.53438 27.003124Q205.00313 27.39375 204.53438 27.55L200.70625 27.55L200.70625 37.003124ZM190.70625 27.003124Q191.33125 27.39375 190.39375 27.55L190.39375 38.565624Q189.37813 39.503124 189.37813 38.64375L189.37813 28.175Q188.20625 30.05 186.64375 31.534374Q186.175 31.846874 186.40938 31.3Q189.3 27.315624 190.94063 21.45625L192.34688 22.003124Q193.05 22.315624 191.87813 22.628124Q191.09688 24.659374 190.08125 26.846874L190.70625 27.003124Z" fill-rule="nonzero"/></svg>